<?xml version="1.0" standalone="no"?>
<!DOCTYPE svg PUBLIC "-//W3C//DTD SVG 1.1//EN" "http://www.w3.org/Graphics/SVG/1.1/DTD/svg11.dtd">
<svg xmlns="http://www.w3.org/2000/svg" id="Layer_1" data-name="Layer 1" viewBox="0 0 475.24 605.83" width="475.239990234375" height="605.8300170898438"><defs><style>.cls-1{fill:#ff4513;}.cls-2{fill:#d8ca47;}.cls-3{fill:#302d37;}</style></defs><path class="cls-1" d="M0,178.18V459.62A146.76,146.76,0,0,0,18.2,531c19,34.07,55.43,74.81,121.44,74.81C288,605.83,288,474.91,288,474.91v-129c0-1.93-.11-3.86-.27-5.79-1-11.44-1.91-57.19,43.91-57.19,43.63,0,34.61,59.76,34.61,59.76L367,497v92.88l108,1V342.67s8.25-164.49-137.38-164.49c-154.36,0-154.36,139.64-154.36,139.64V448.73S192,501.1,148.37,501.1C96,501.1,104.73,440,104.73,440l2-261.82Z"/><path class="cls-1" d="M68.77,27.49c-.14.41-8.69,37.83-6,55.68S69.54,127.8,48.4,131c-15.64,2.37-18.06-12.27-18.59-29.25,2.66,2.72,6.34,4,11.27,3,16-3.26,11.88-23.55,9.13-37.07-1.17-5.74-.62-14.79.18-24.92C60.71,30.29,70.59,22.08,68.77,27.49Z"/><path class="cls-2" d="M41.08,104.7c-4.93,1-8.61-.23-11.27-3-.2-6-.15-12.2-.37-18.1C29,72.22,39.93,55.3,50.39,42.71c-.8,10.13-1.35,19.18-.18,24.92C53,81.15,57.09,101.44,41.08,104.7Z"/><path class="cls-3" d="M50.39,42.71C39.93,55.3,29,72.22,29.44,83.65c.22,5.9.17,12.14.37,18.1-6-6.13-6.85-19.79-5-32.47,5-34.57,25.54-76.84,26.68-68.12C53,13.3,51.48,29,50.39,42.71Z"/><path class="cls-2" d="M.44,177.25s22.84-18.66,49.49-18.66c41.87,0,59.17,22,59.17,22s-28.72,14.3-59.17,11S.44,177.25.44,177.25Z"/><path class="cls-3" d="M366.44,588.78s21.65-14.36,48.28-16c41.84-2.66,60.52,18.15,60.52,18.15s-27.79,16.1-58.43,14.75S366.44,588.78,366.44,588.78Z"/></svg>