<svg xmlns="http://www.w3.org/2000/svg" xmlns:xlink="http://www.w3.org/1999/xlink" width="40" zoomAndPan="magnify" viewBox="0 0 30 30.000001" height="40" preserveAspectRatio="xMidYMid meet" version="1.0"><defs><clipPath id="ef9d85174a"><path d="M 3.621094 8 L 26.121094 8 L 26.121094 29.03125 L 3.621094 29.03125 Z M 3.621094 8 " clip-rule="nonzero"/></clipPath><clipPath id="e866d0b531"><path d="M 3.621094 7 L 9 7 L 9 10 L 3.621094 10 Z M 3.621094 7 " clip-rule="nonzero"/></clipPath><clipPath id="d985dd1280"><path d="M 20 27 L 26.121094 27 L 26.121094 29.03125 L 20 29.03125 Z M 20 27 " clip-rule="nonzero"/></clipPath></defs><g clip-path="url(#ef9d85174a)"><path fill="#ff4513" d="M 3.621094 8.546875 L 3.621094 22.015625 C 3.617188 23.230469 3.902344 24.371094 4.484375 25.433594 C 5.382812 27.066406 7.109375 29.015625 10.234375 29.015625 C 17.257812 29.015625 17.257812 22.75 17.257812 22.75 L 17.257812 16.574219 C 17.257812 16.480469 17.25 16.390625 17.246094 16.296875 C 17.195312 15.75 17.152344 13.558594 19.324219 13.558594 C 21.390625 13.558594 20.960938 16.421875 20.960938 16.421875 L 20.996094 23.808594 L 20.996094 28.253906 L 26.109375 28.300781 L 26.109375 16.417969 C 26.109375 16.417969 26.5 8.546875 19.605469 8.546875 C 12.296875 8.546875 12.296875 15.230469 12.296875 15.230469 L 12.296875 21.496094 C 12.296875 21.496094 12.710938 24.003906 10.644531 24.003906 C 8.167969 24.003906 8.582031 21.078125 8.582031 21.078125 L 8.675781 8.546875 Z M 3.621094 8.546875 " fill-opacity="1" fill-rule="nonzero"/></g><path fill="#ff4513" d="M 6.878906 1.332031 C 6.871094 1.351562 6.464844 3.144531 6.59375 3.996094 C 6.722656 4.851562 6.914062 6.132812 5.914062 6.285156 C 5.171875 6.398438 5.058594 5.699219 5.03125 4.886719 C 5.160156 5.015625 5.332031 5.078125 5.566406 5.03125 C 6.324219 4.875 6.128906 3.902344 6 3.253906 C 5.945312 2.980469 5.96875 2.546875 6.007812 2.0625 C 6.496094 1.464844 6.964844 1.074219 6.878906 1.332031 Z M 6.878906 1.332031 " fill-opacity="1" fill-rule="nonzero"/><path fill="#d8ca47" d="M 5.566406 5.027344 C 5.332031 5.074219 5.160156 5.015625 5.03125 4.882812 C 5.023438 4.597656 5.027344 4.300781 5.015625 4.019531 C 4.996094 3.472656 5.511719 2.664062 6.007812 2.058594 C 5.96875 2.546875 5.945312 2.976562 6 3.253906 C 6.132812 3.898438 6.324219 4.871094 5.566406 5.027344 Z M 5.566406 5.027344 " fill-opacity="1" fill-rule="nonzero"/><path fill="#302d37" d="M 6.007812 2.058594 C 5.511719 2.664062 4.996094 3.472656 5.015625 4.019531 C 5.027344 4.300781 5.023438 4.601562 5.03125 4.886719 C 4.75 4.59375 4.707031 3.9375 4.796875 3.332031 C 5.03125 1.675781 6.003906 -0.347656 6.058594 0.0703125 C 6.132812 0.652344 6.058594 1.402344 6.007812 2.058594 Z M 6.007812 2.058594 " fill-opacity="1" fill-rule="nonzero"/><g clip-path="url(#e866d0b531)"><path fill="#d8ca47" d="M 3.644531 8.5 C 3.644531 8.5 4.722656 7.605469 5.984375 7.605469 C 7.96875 7.605469 8.789062 8.660156 8.789062 8.660156 C 8.789062 8.660156 7.425781 9.34375 5.984375 9.1875 C 4.542969 9.027344 3.644531 8.5 3.644531 8.5 Z M 3.644531 8.5 " fill-opacity="1" fill-rule="nonzero"/></g><g clip-path="url(#d985dd1280)"><path fill="#302d37" d="M 20.972656 28.199219 C 20.972656 28.199219 21.996094 27.511719 23.257812 27.433594 C 25.238281 27.308594 26.121094 28.304688 26.121094 28.304688 C 26.121094 28.304688 24.804688 29.074219 23.355469 29.007812 C 21.90625 28.945312 20.972656 28.199219 20.972656 28.199219 Z M 20.972656 28.199219 " fill-opacity="1" fill-rule="nonzero"/></g></svg>